<svg width="145" height="19" viewBox="0 0 145 19" fill="none" xmlns="http://www.w3.org/2000/svg">
<path d="M9.12061 1.1626C6.81144 1.1626 6.52315 1.17322 5.61648 1.2136C4.71123 1.2561 4.09498 1.39847 3.55311 1.60885C2.99423 1.8256 2.51965 2.11672 2.04719 2.58918C1.57473 3.06164 1.2829 3.53551 1.06686 4.0951C0.85648 4.63697 0.713397 5.25322 0.671605 6.15847C0.629105 7.06514 0.620605 7.35343 0.620605 9.6626C0.620605 11.9718 0.63123 12.2601 0.671605 13.1667C0.714105 14.0713 0.85648 14.6882 1.06686 15.2301C1.28361 15.7883 1.57473 16.2636 2.04719 16.736C2.51965 17.2078 2.99352 17.5003 3.55311 17.7163C4.09569 17.926 4.71194 18.0698 5.61648 18.1116C6.52315 18.1541 6.81144 18.1626 9.12061 18.1626C11.4298 18.1626 11.7181 18.152 12.6247 18.1116C13.5293 18.0691 14.1462 17.926 14.6881 17.7163C15.2463 17.4996 15.7216 17.2078 16.194 16.736C16.6658 16.2636 16.9583 15.7904 17.1744 15.2301C17.384 14.6882 17.5278 14.0713 17.5696 13.1667C17.6121 12.2601 17.6206 11.9718 17.6206 9.6626C17.6206 7.35343 17.61 7.06514 17.5696 6.15847C17.5271 5.25393 17.384 4.63626 17.1744 4.0951C16.9576 3.53622 16.6658 3.06164 16.194 2.58918C15.7216 2.11672 15.2484 1.82489 14.6881 1.60885C14.1462 1.39847 13.5293 1.25539 12.6247 1.2136C11.7181 1.1711 11.4298 1.1626 9.12061 1.1626ZM9.12061 2.6926C11.3894 2.6926 11.66 2.70393 12.556 2.74289C13.3848 2.78185 13.8346 2.91926 14.1335 3.03685C14.5316 3.19056 14.8135 3.37472 15.1124 3.67151C15.4092 3.96901 15.5934 4.25164 15.7471 4.64972C15.8632 4.94864 16.0021 5.39843 16.0396 6.22718C16.08 7.12393 16.0892 7.3931 16.0892 9.6626C16.0892 11.9321 16.0786 12.202 16.0368 13.098C15.9936 13.9268 15.8554 14.3766 15.7386 14.6755C15.5799 15.0736 15.3993 15.3555 15.1018 15.6544C14.805 15.9512 14.5181 16.1353 14.1243 16.2891C13.8268 16.4052 13.3699 16.5441 12.5411 16.5816C11.6387 16.622 11.3731 16.6312 9.09936 16.6312C6.8249 16.6312 6.55927 16.6206 5.65756 16.5788C4.82811 16.5356 4.37123 16.3974 4.07373 16.2806C3.67069 16.1219 3.39373 15.9413 3.09694 15.6438C2.79873 15.347 2.60819 15.0601 2.45944 14.6663C2.34256 14.3688 2.20515 13.9119 2.16194 13.0831C2.13006 12.1906 2.11873 11.9151 2.11873 9.65197C2.11873 7.38814 2.13006 7.11189 2.16194 6.20876C2.20515 5.38001 2.34256 4.92385 2.45944 4.62635C2.60819 4.2226 2.79873 3.94635 3.09694 3.64814C3.39373 3.35135 3.67069 3.1601 4.07373 3.01206C4.37123 2.89447 4.81819 2.75635 5.64694 2.71385C6.55006 2.68197 6.81569 2.67135 9.08873 2.67135L9.12061 2.6926ZM9.12061 5.29785C6.70873 5.29785 4.75586 7.25285 4.75586 9.6626C4.75586 12.0745 6.71086 14.0273 9.12061 14.0273C11.5325 14.0273 13.4854 12.0723 13.4854 9.6626C13.4854 7.25072 11.5304 5.29785 9.12061 5.29785ZM9.12061 12.4959C7.55519 12.4959 6.28727 11.228 6.28727 9.6626C6.28727 8.09718 7.55519 6.82926 9.12061 6.82926C10.686 6.82926 11.9539 8.09718 11.9539 9.6626C11.9539 11.228 10.686 12.4959 9.12061 12.4959ZM14.6782 5.12572C14.6782 5.68885 14.2206 6.14572 13.6582 6.14572C13.0951 6.14572 12.6382 5.68814 12.6382 5.12572C12.6382 4.56331 13.0958 4.10643 13.6582 4.10643C14.2199 4.10572 14.6782 4.56331 14.6782 5.12572Z" fill="white" fill-opacity="0.65"/>
<path d="M144.462 4.29889C143.824 4.57968 143.141 4.77097 142.423 4.85831C143.155 4.41727 143.718 3.72214 143.985 2.89276C143.298 3.29338 142.537 3.585 141.727 3.74741C141.081 3.05517 140.159 2.62207 139.135 2.62207C137.174 2.62207 135.584 4.21227 135.584 6.17133C135.584 6.45284 135.616 6.72353 135.676 6.98267C132.723 6.84335 130.107 5.42567 128.355 3.28255C128.047 3.80371 127.875 4.40933 127.875 5.06909C127.875 6.30342 128.503 7.38834 129.454 8.02572C128.872 8.00695 128.324 7.8467 127.846 7.58107V7.6251C127.846 9.34667 129.068 10.7824 130.694 11.1094C130.396 11.1895 130.081 11.2328 129.759 11.2328C129.532 11.2328 129.315 11.2112 129.097 11.1707C129.553 12.5805 130.862 13.6084 132.421 13.6373C131.208 14.5894 129.671 15.1567 128.016 15.1567C127.735 15.1567 127.454 15.1401 127.172 15.1083C128.752 16.1146 130.613 16.7029 132.627 16.7029C139.162 16.7029 142.731 11.292 142.731 6.60731C142.731 6.45645 142.731 6.30414 142.721 6.15256C143.414 5.65522 144.02 5.0265 144.496 4.31333L144.462 4.29889Z" fill="white" fill-opacity="0.65"/>
<path d="M59.8544 9.71506C59.8544 4.94298 55.9859 1.07446 51.2138 1.07446C46.4418 1.07446 42.5732 4.94298 42.5732 9.71506C42.5732 14.0278 45.733 17.6024 49.8637 18.2507V12.2127H47.6698V9.71506H49.8637V7.81142C49.8637 5.64587 51.1537 4.44969 53.1274 4.44969C54.0727 4.44969 55.0616 4.61845 55.0616 4.61845V6.74484H53.9721C52.8987 6.74484 52.5639 7.4109 52.5639 8.09421V9.71506H54.9603L54.5772 12.2127H52.5639V18.2507C56.6947 17.6024 59.8544 14.0278 59.8544 9.71506Z" fill="white" fill-opacity="0.65"/>
<path d="M99.6413 15.7944H97.0629V11.7541C97.0629 10.7906 97.0433 9.55075 95.7193 9.55075C94.3749 9.55075 94.1696 10.5991 94.1696 11.683V15.7944H91.5912V7.48599H94.0681V8.61849H94.1014C94.4475 7.96554 95.2891 7.27632 96.5464 7.27632C99.1589 7.27632 99.642 8.99575 99.642 11.2339L99.6413 15.7944ZM88.6791 6.34914C87.8491 6.34914 87.1824 5.67733 87.1824 4.851C87.1824 4.02538 87.8499 3.3543 88.6791 3.3543C89.5062 3.3543 90.1765 4.02538 90.1765 4.851C90.1765 5.67733 89.5054 6.34914 88.6791 6.34914ZM89.9719 15.7944H87.3863V7.48599H89.9719V15.7944ZM100.931 0.956543H86.092C85.3817 0.956543 84.8071 1.51808 84.8071 2.21092V17.114C84.8071 17.8076 85.3817 18.3684 86.092 18.3684H100.929C101.639 18.3684 102.219 17.8076 102.219 17.114V2.21092C102.219 1.51808 101.639 0.956543 100.929 0.956543H100.931Z" fill="white" fill-opacity="0.65"/>
</svg>
