<svg width="145" height="18" viewBox="0 0 145 18" fill="none" xmlns="http://www.w3.org/2000/svg">
<path d="M8.68066 0.530273C6.3715 0.530273 6.08321 0.540898 5.17654 0.581273C4.27129 0.623773 3.65504 0.766148 3.11316 0.976523C2.55429 1.19327 2.07971 1.4844 1.60725 1.95686C1.13479 2.42931 0.842956 2.90319 0.626914 3.46277C0.416539 4.00465 0.273456 4.6209 0.231664 5.52615C0.189164 6.43282 0.180664 6.72111 0.180664 9.03027C0.180664 11.3394 0.191289 11.6277 0.231664 12.5344C0.274164 13.4389 0.416539 14.0559 0.626914 14.5978C0.843664 15.1559 1.13479 15.6312 1.60725 16.1037C2.07971 16.5754 2.55358 16.868 3.11316 17.084C3.65575 17.2937 4.272 17.4375 5.17654 17.4793C6.08321 17.5218 6.3715 17.5303 8.68066 17.5303C10.9898 17.5303 11.2781 17.5196 12.1848 17.4793C13.0893 17.4368 13.7063 17.2937 14.2482 17.084C14.8063 16.8673 15.2816 16.5754 15.7541 16.1037C16.2258 15.6312 16.5184 15.1581 16.7344 14.5978C16.9441 14.0559 17.0879 13.4389 17.1297 12.5344C17.1722 11.6277 17.1807 11.3394 17.1807 9.03027C17.1807 6.72111 17.17 6.43282 17.1297 5.52615C17.0872 4.62161 16.9441 4.00394 16.7344 3.46277C16.5177 2.9039 16.2258 2.42931 15.7541 1.95686C15.2816 1.4844 14.8085 1.19257 14.2482 0.976523C13.7063 0.766148 13.0893 0.623065 12.1848 0.581273C11.2781 0.538773 10.9898 0.530273 8.68066 0.530273ZM8.68066 2.06027C10.9495 2.06027 11.22 2.07161 12.1161 2.11057C12.9448 2.14952 13.3946 2.28694 13.6935 2.40452C14.0916 2.55823 14.3735 2.7424 14.6725 3.03919C14.9692 3.33669 15.1534 3.61931 15.3071 4.0174C15.4233 4.31631 15.5621 4.76611 15.5997 5.59486C15.64 6.49161 15.6492 6.76077 15.6492 9.03027C15.6492 11.2998 15.6386 11.5696 15.5968 12.4657C15.5536 13.2944 15.4155 13.7442 15.2986 14.0431C15.14 14.4412 14.9593 14.7231 14.6618 15.0221C14.365 15.3189 14.0782 15.503 13.6843 15.6567C13.3868 15.7729 12.93 15.9117 12.1012 15.9493C11.1988 15.9896 10.9332 15.9989 8.65941 15.9989C6.38496 15.9989 6.11933 15.9882 5.21762 15.9464C4.38816 15.9032 3.93129 15.7651 3.63379 15.6482C3.23075 15.4896 2.95379 15.3089 2.657 15.0114C2.35879 14.7146 2.16825 14.4278 2.0195 14.0339C1.90262 13.7364 1.76521 13.2796 1.722 12.4508C1.69012 11.5583 1.67879 11.2828 1.67879 9.01965C1.67879 6.75581 1.69012 6.47957 1.722 5.57644C1.76521 4.74769 1.90262 4.29152 2.0195 3.99402C2.16825 3.59027 2.35879 3.31402 2.657 3.01582C2.95379 2.71902 3.23075 2.52777 3.63379 2.37973C3.93129 2.26215 4.37825 2.12402 5.207 2.08152C6.11012 2.04965 6.37575 2.03902 8.64879 2.03902L8.68066 2.06027ZM8.68066 4.66552C6.26879 4.66552 4.31591 6.62052 4.31591 9.03027C4.31591 11.4421 6.27091 13.395 8.68066 13.395C11.0925 13.395 13.0454 11.44 13.0454 9.03027C13.0454 6.6184 11.0904 4.66552 8.68066 4.66552ZM8.68066 11.8636C7.11525 11.8636 5.84733 10.5957 5.84733 9.03027C5.84733 7.46486 7.11525 6.19694 8.68066 6.19694C10.2461 6.19694 11.514 7.46486 11.514 9.03027C11.514 10.5957 10.2461 11.8636 8.68066 11.8636ZM14.2382 4.4934C14.2382 5.05652 13.7807 5.5134 13.2182 5.5134C12.6551 5.5134 12.1982 5.05581 12.1982 4.4934C12.1982 3.93098 12.6558 3.47411 13.2182 3.47411C13.78 3.4734 14.2382 3.93098 14.2382 4.4934Z" fill="#5E5E5E"/>
<path d="M144.022 3.66657C143.384 3.94736 142.702 4.13864 141.983 4.22599C142.715 3.78495 143.278 3.08982 143.545 2.26043C142.858 2.66105 142.097 2.95267 141.287 3.11508C140.641 2.42285 139.719 1.98975 138.695 1.98975C136.734 1.98975 135.144 3.57995 135.144 5.539C135.144 5.82052 135.176 6.0912 135.236 6.35034C132.283 6.21103 129.667 4.79335 127.915 2.65022C127.607 3.17139 127.435 3.77701 127.435 4.43676C127.435 5.6711 128.063 6.75601 129.014 7.39339C128.432 7.37463 127.884 7.21438 127.406 6.94874V6.99278C127.406 8.71435 128.628 10.1501 130.254 10.4771C129.956 10.5572 129.641 10.6005 129.319 10.6005C129.092 10.6005 128.875 10.5788 128.658 10.5384C129.113 11.9482 130.422 12.9761 131.981 13.0049C130.768 13.957 129.231 14.5244 127.576 14.5244C127.295 14.5244 127.014 14.5078 126.732 14.476C128.312 15.4823 130.173 16.0706 132.187 16.0706C138.722 16.0706 142.292 10.6597 142.292 5.97499C142.292 5.82413 142.292 5.67182 142.281 5.52023C142.974 5.02289 143.58 4.39417 144.056 3.681L144.022 3.66657Z" fill="#5E5E5E"/>
<path d="M59.4144 9.08274C59.4144 4.31065 55.546 0.442139 50.7739 0.442139C46.0018 0.442139 42.1333 4.31065 42.1333 9.08274C42.1333 13.3955 45.293 16.9701 49.4238 17.6183V11.5804H47.2299V9.08274H49.4238V7.17909C49.4238 5.01355 50.7138 3.81737 52.6874 3.81737C53.6328 3.81737 54.6216 3.98612 54.6216 3.98612V6.11252H53.5321C52.4587 6.11252 52.124 6.77857 52.124 7.46189V9.08274H54.5204L54.1373 11.5804H52.124V17.6183C56.2548 16.9701 59.4144 13.3955 59.4144 9.08274Z" fill="#5E5E5E"/>
<path d="M99.2014 15.162H96.623V11.1218C96.623 10.1583 96.6034 8.91842 95.2793 8.91842C93.935 8.91842 93.7297 9.96676 93.7297 11.0507V15.162H91.1513V6.85367H93.6281V7.98617H93.6615C94.0076 7.33322 94.8491 6.644 96.1064 6.644C98.7189 6.644 99.2021 8.36342 99.2021 10.6016L99.2014 15.162ZM88.2392 5.71682C87.4092 5.71682 86.7425 5.04501 86.7425 4.21867C86.7425 3.39306 87.4099 2.72198 88.2392 2.72198C89.0662 2.72198 89.7366 3.39306 89.7366 4.21867C89.7366 5.04501 89.0655 5.71682 88.2392 5.71682ZM89.532 15.162H86.9463V6.85367H89.532V15.162ZM100.491 0.324219H85.652C84.9418 0.324219 84.3672 0.885751 84.3672 1.5786V16.4817C84.3672 17.1753 84.9418 17.7361 85.652 17.7361H100.489C101.199 17.7361 101.779 17.1753 101.779 16.4817V1.5786C101.779 0.885751 101.199 0.324219 100.489 0.324219H100.491Z" fill="#5E5E5E"/>
</svg>
